# xmcd
# Track frame offsets:
# 150
# 17159
# 32805
# 50687
# 60364
# 81225
# 100819
# 119605
# 143418
# 160793
# 178844
# 199882
# 212059
# 233358
# 254896
# 272114
# 282598
# 301658
# 326575
# 341335
#
# Disc length: 4716 seconds
# Revision: 0
# Processed by: cddbd v1.5.2PL0 Copyright (c) Steve Scherf et al.
# Submitted via: VisiTrax 2.10.2.252 - For more info visit www.synapsa.com
#
DISCID=22126a14
DTITLE=Rolf Wikström - Det brustna hjärtat
DYEAR=2005
DGENRE=Blues
TTITLE0=En valsmelodi
TTITLE1=En liten konstnär
TTITLE2=Mitt hjärta är ditt
TTITLE3=Precis som förut
TTITLE4=Vid diktens port
TTITLE5=Stjärnorna kvittar det lika
TTITLE6=En skål i bröder
TTITLE7=Till en gammal bekant
TTITLE8=Tröstlösa dagar
TTITLE9=Fåfänglghet
TTITLE10=Ett brev
TTITLE11=Över tuseb hav
TTITLE12=En gång
TTITLE13=En ökenblomma
TTITLE14=Poeterna har sagt
TTITLE15=Olust
TTITLE16=Brr
TTITLE17=När skönheten kom till byn
TTITLE18=Ett ankhuvud
TTITLE19=Får jag lämna några blommor
EXTD=
EXTT0=
EXTT1=
EXTT2=
EXTT3=
EXTT4=
EXTT5=
EXTT6=
EXTT7=
EXTT8=
EXTT9=
EXTT10=
EXTT11=
EXTT12=
EXTT13=
EXTT14=
EXTT15=
EXTT16=
EXTT17=
EXTT18=
EXTT19=
PLAYORDER=
